<?xml version="1.0" standalone="no"?><!DOCTYPE svg PUBLIC "-//W3C//DTD SVG 1.1//EN" "http://www.w3.org/Graphics/SVG/1.1/DTD/svg11.dtd"><svg t="1528964486632" class="icon" style="" viewBox="0 0 1024 1024" version="1.1" xmlns="http://www.w3.org/2000/svg" p-id="4362" xmlns:xlink="http://www.w3.org/1999/xlink" width="200" height="200"><defs><style type="text/css"></style></defs><path d="M257.243317 303.056224c-13.846356 0-25.071002 11.224646-25.071002 25.071002s11.224646 25.071002 25.071002 25.071002c13.845333 0 25.071002-11.224646 25.071002-25.071002S271.089673 303.056224 257.243317 303.056224zM257.243317 350.691127c-12.44238 0-22.562878-10.121522-22.562878-22.563902 0-12.443403 10.120498-22.563902 22.562878-22.563902s22.562878 10.120498 22.562878 22.563902C279.806195 340.569606 269.685697 350.691127 257.243317 350.691127z" p-id="4363" fill="#1afa29"></path><path d="M255.843434 309.422212l2.801812 0 0 20.205181-2.801812 0 0-20.205181Z" p-id="4364" fill="#1afa29"></path><path d="M255.941672 326.72632l20.203134 0 0 2.801812-20.203134 0 0-2.801812Z" p-id="4365" fill="#1afa29"></path><path d="M357.134375 467.454458l44.535309 0 0 356.332614-44.535309 0 0-356.332614Z" p-id="4366" fill="#1afa29"></path><path d="M490.754628 467.454458l44.535309 0 0 356.332614-44.535309 0 0-356.332614Z" p-id="4367" fill="#1afa29"></path><path d="M624.375905 467.454458l44.535309 0 0 356.332614-44.535309 0 0-356.332614Z" p-id="4368" fill="#1afa29"></path><path d="M802.540677 155.675572 624.375905 155.675572l0-44.541449c0-24.602328-19.949354-44.541449-44.537356-44.541449L446.208063 66.592674c-24.588001 0-44.537356 19.938098-44.537356 44.541449l0 44.541449L223.503888 155.675572c-24.588001 0-44.536332 19.935028-44.536332 44.537356l0 89.082898c0 24.602328 19.948331 44.541449 44.536332 44.541449L223.503888 912.86076c0 24.617677 19.958564 44.546565 44.547589 44.546565l489.945705 0c24.588001 0 44.544519-19.929912 44.544519-44.546565L802.541701 333.837274c24.590048 0 44.537356-19.938098 44.537356-44.541449l0-89.082898C847.079056 175.6106 827.130725 155.675572 802.540677 155.675572zM446.208063 111.134123l133.629463 0 0 44.541449L446.208063 155.675572 446.208063 111.134123zM757.996159 912.86076 268.050454 912.86076 268.050454 333.837274l489.945705 0L757.996159 912.86076zM802.540677 289.296849l-579.037812 0 0-89.082898 579.037812 0L802.540677 289.296849z" p-id="4369" fill="#1afa29"></path></svg>