<?xml version="1.0" standalone="no"?><!DOCTYPE svg PUBLIC "-//W3C//DTD SVG 1.1//EN" "http://www.w3.org/Graphics/SVG/1.1/DTD/svg11.dtd"><svg t="1528994164322" class="icon" style="" viewBox="0 0 1024 1024" version="1.1" xmlns="http://www.w3.org/2000/svg" p-id="1441" xmlns:xlink="http://www.w3.org/1999/xlink" width="200" height="200"><defs><style type="text/css"></style></defs><path d="M615.424 534.528c98.816-40.96 168.96-138.24 168.96-251.904 0-150.016-122.368-272.384-272.384-272.384s-272.384 122.368-272.384 272.384c0 113.664 69.632 210.944 168.96 251.904-217.6 45.568-385.024 232.96-397.824 462.848-0.512 8.704 6.144 15.872 14.336 16.384h1.024c8.192 0 14.848-6.144 15.36-14.336 13.824-245.76 215.04-439.296 460.288-444.416 3.584 0 6.656 0.512 10.24 0.512s6.656 0 10.24-0.512c245.248 5.12 446.464 198.656 460.288 444.416 0.512 8.704 7.68 14.848 16.384 14.336 8.704-0.512 14.848-7.68 14.336-16.384-12.8-230.4-180.224-417.28-397.824-462.848z m-345.088-251.904c0-133.12 108.544-241.664 241.664-241.664s241.664 108.544 241.664 241.664c0 129.024-101.376 234.496-228.864 241.152h-25.6c-127.488-6.656-228.864-112.128-228.864-241.152z" p-id="1442" fill="#1296db"></path></svg>